<svg width="28" height="13" viewBox="0 0 28 13" fill="none" xmlns="http://www.w3.org/2000/svg">
<path d="M15.3545 6.00821H25.03C25.7075 6.00821 26.3573 5.73916 26.8365 5.26021C27.3158 4.78127 27.5852 4.13162 27.5855 3.4541C27.5855 2.77632 27.3163 2.12631 26.837 1.64705C26.3578 1.16779 25.7078 0.898546 25.03 0.898546H15.3545C14.6767 0.898546 14.0267 1.16779 13.5474 1.64705C13.0682 2.12631 12.7989 2.77632 12.7989 3.4541C12.7993 4.13162 13.0687 4.78127 13.5479 5.26021C14.0272 5.73916 14.6769 6.00821 15.3545 6.00821ZM2.62733 12.5164H13.7491C14.4266 12.5164 15.0764 12.2474 15.5557 11.7684C16.0349 11.2895 16.3043 10.6398 16.3047 9.9623C16.3047 9.28452 16.0354 8.63451 15.5562 8.15525C15.0769 7.67599 14.4269 7.40674 13.7491 7.40674H2.62733C1.94956 7.40674 1.29954 7.67599 0.820281 8.15525C0.341022 8.63451 0.0717773 9.28452 0.0717773 9.9623H0.0717773C0.0721608 10.6398 0.341575 11.2895 0.820792 11.7684C1.30001 12.2474 1.94981 12.5164 2.62733 12.5164ZM1.57734 5.91564H2.70543V1.79379H4.16616V0.792969H0.116612V1.79089H1.57734V5.91564ZM5.64135 5.91564H6.76944V1.98614H6.7839L8.08554 5.91275H8.9533L10.2983 1.98614H10.3128V5.91275H11.4409V0.792969H9.72705L8.54111 4.13384H8.52665L7.34794 0.792969H5.64135V5.91564ZM22.1172 8.84433C21.9664 8.52973 21.7422 8.25595 21.4635 8.04599C21.1744 7.83458 20.8459 7.68312 20.4974 7.60054C20.1157 7.50518 19.7237 7.45661 19.3303 7.45592H17.6381V12.5757H19.4821C19.8525 12.5775 20.221 12.5214 20.574 12.4094C20.9074 12.3079 21.2189 12.1451 21.4924 11.9292C21.7585 11.7133 21.9742 11.4418 22.1244 11.1338C22.2869 10.7915 22.3676 10.4163 22.3602 10.0375C22.372 9.62639 22.2888 9.2181 22.1172 8.84433ZM21.0426 10.7144C20.958 10.9073 20.8268 11.0763 20.6608 11.2061C20.4883 11.3329 20.2913 11.4225 20.0823 11.4693C19.8452 11.5239 19.6025 11.5506 19.3592 11.5489H18.7734V8.51169H19.4387C19.667 8.51056 19.8943 8.54123 20.1141 8.60281C20.3164 8.65733 20.5067 8.74904 20.6753 8.87326C20.8299 8.99493 20.9554 9.14959 21.0426 9.32594C21.142 9.5293 21.1916 9.75336 21.1873 9.97965C21.1936 10.2322 21.1442 10.4831 21.0426 10.7144ZM27.4973 10.6956C27.4462 10.5557 27.3687 10.4271 27.2688 10.3166C27.1695 10.2068 27.0509 10.1161 26.9188 10.0491C26.7748 9.97638 26.62 9.92754 26.4604 9.90445V9.88998C26.7084 9.81876 26.9305 9.67708 27.0996 9.48214C27.2663 9.27892 27.3528 9.02165 27.3426 8.759C27.3534 8.52346 27.2956 8.28983 27.1763 8.08649C27.0673 7.9207 26.918 7.78533 26.7424 7.69311C26.5534 7.59553 26.3488 7.53189 26.1378 7.50509C25.9165 7.47348 25.6932 7.45753 25.4697 7.45736H23.5606V12.5771H25.6577C25.8871 12.5773 26.116 12.553 26.3403 12.5048C26.5587 12.4611 26.7681 12.3804 26.9593 12.2662C27.1403 12.1582 27.2938 12.0097 27.4077 11.8323C27.5296 11.6282 27.5899 11.3931 27.5812 11.1555C27.5814 10.9987 27.5545 10.8431 27.5017 10.6956H27.4973ZM24.6887 8.41769H25.4552C25.545 8.41804 25.6346 8.42675 25.7228 8.44372C25.8083 8.4591 25.8911 8.48687 25.9686 8.52615C26.0401 8.56514 26.1007 8.6213 26.1451 8.68958C26.1939 8.76845 26.2181 8.86011 26.2145 8.9528C26.2166 9.04349 26.1952 9.13319 26.1523 9.21313C26.1133 9.28334 26.0577 9.34293 25.9903 9.38668C25.9202 9.43111 25.8429 9.46292 25.7618 9.48069C25.6779 9.50045 25.592 9.51016 25.5058 9.50962H24.6887V8.41769ZM26.3837 11.3102C26.3402 11.3857 26.2798 11.45 26.2073 11.4982C26.1337 11.5477 26.0512 11.5821 25.9643 11.5995C25.8779 11.6189 25.7896 11.6286 25.7011 11.6284H24.6887V10.4714H25.542C25.6388 10.4723 25.7354 10.4795 25.8312 10.4931C25.933 10.5071 26.0326 10.5338 26.1277 10.5726C26.2164 10.6098 26.2944 10.6684 26.3548 10.7433C26.4177 10.8262 26.4499 10.9285 26.4459 11.0325C26.4505 11.129 26.429 11.2249 26.3837 11.3102Z" fill="url(#paint0_linear_563_3271)"/>
<defs>
<linearGradient id="paint0_linear_563_3271" x1="0.0717773" y1="6.68795" x2="27.5855" y2="6.68795" gradientUnits="userSpaceOnUse">
<stop stop-color="#90CEA1"/>
<stop offset="0.56" stop-color="#3CBEC9"/>
<stop offset="1" stop-color="#00B3E5"/>
</linearGradient>
</defs>
</svg>
