<svg width="164" height="110" viewBox="0 0 164 110" fill="none" xmlns="http://www.w3.org/2000/svg">
<path d="M9.25843 97.6007C11.2239 99.6448 13.5825 99.8807 14.7224 99.8807C16.4914 99.8807 18.7713 99.3696 20.7368 97.4435C22.4271 95.7925 23.5671 93.4339 23.5671 90.4857C23.5671 87.4589 22.3485 85.1396 20.894 83.6852C19.4789 82.27 17.3562 81.1301 14.6438 81.1301C12.0494 81.1301 10.3591 82.27 9.25843 83.6459V81.7197H2.96893V108.293H9.25843V97.6007ZM13.1108 86.4762C14.2114 86.4762 15.1942 86.9086 15.9017 87.6554C16.6879 88.4416 17.1203 89.5816 17.1203 90.5643C17.1203 91.6257 16.57 92.687 15.9017 93.3553C15.1942 94.1022 14.2114 94.5346 13.1108 94.5346C12.0494 94.5346 11.0274 94.1022 10.2805 93.3553C9.61222 92.687 9.06189 91.5864 9.06189 90.5643C9.06189 89.5816 9.49429 88.4416 10.2805 87.6554C11.0274 86.9086 12.0494 86.4762 13.1108 86.4762ZM35.6826 86.4762C36.6654 86.4762 37.766 86.9479 38.4736 87.6161C39.2598 88.4023 39.6922 89.5423 39.6922 90.4857C39.6922 91.5078 39.2598 92.5298 38.4736 93.2767C37.7267 94.0236 36.7047 94.456 35.6826 94.456C34.6213 94.456 33.5992 94.0236 32.8524 93.2767C32.1448 92.5691 31.6338 91.5471 31.6338 90.4857C31.6338 89.4637 32.0662 88.363 32.8524 87.6161C33.5599 86.9479 34.6606 86.4762 35.6826 86.4762ZM46.2176 90.4857C46.2176 87.341 44.8024 85.2969 43.5052 84.039C42.0508 82.6631 39.535 81.1301 35.6433 81.1301C31.8303 81.1301 29.2752 82.6238 27.8208 84.039C26.5236 85.2969 25.1084 87.341 25.1084 90.4857C25.1084 92.8443 25.8946 95.0849 27.8208 96.9718C30.2579 99.3696 33.0882 99.8807 35.6433 99.8807C38.4736 99.8807 41.186 99.2517 43.5052 96.9718C45.4314 95.0849 46.2176 92.8443 46.2176 90.4857ZM48.4711 70.6345V99.291H54.7606V92.0974L61.168 99.291H69.8947L60.9322 89.8175L69.2264 81.7197H60.6963L54.7606 88.0485V70.6345H48.4711ZM88.5688 90.9967C88.5688 89.0313 88.2543 85.9651 85.7778 83.6066C83.6945 81.6411 81.0607 81.2087 79.0166 81.2087C75.5574 81.2087 73.2775 82.3487 71.823 83.7638C70.2899 85.2576 69.1893 87.6161 69.1893 90.5643C69.1893 93.9056 70.6437 96.0676 71.7837 97.2076C73.9457 99.3696 76.7367 99.8807 79.0559 99.8807C82.869 99.8807 84.913 98.7014 86.2103 97.4435C87.5075 96.1856 88.0578 94.8097 88.333 93.827H82.3186C82.0435 94.3773 81.6111 94.7704 81.218 95.0063C80.4318 95.4387 79.3311 95.478 79.1739 95.478C77.7587 95.478 76.9725 95.0063 76.5795 94.6132C75.8326 93.8663 75.4788 92.6084 75.4788 91.665H88.5688V90.9967ZM75.6753 88.0485C75.7933 87.2623 76.1864 86.6334 76.6188 86.1617C77.287 85.4934 78.1125 85.2183 79.1739 85.2183C79.8028 85.2183 80.9428 85.3362 81.7683 86.1617C82.24 86.6334 82.6331 87.3803 82.7903 88.0485H75.6753ZM101.36 86.8692V81.7197H97.7832V75.9412H91.4937V81.7197H89.4889V86.8692H91.4937V99.291H97.7832V86.8692H101.36ZM110.147 99.291H116.436V90.6036C116.436 89.503 116.436 87.8127 117.537 86.7513C118.048 86.2403 118.598 86.1224 119.267 86.1224C119.896 86.1224 120.603 86.2403 121.154 86.8299C121.861 87.5768 121.979 88.9133 121.979 90.6036V99.291H128.269V90.2892C128.269 89.4244 128.347 87.9699 129.409 86.9479C129.959 86.4368 130.548 86.2403 131.256 86.2403C132.082 86.2403 132.553 86.5155 132.907 86.8299C133.615 87.4982 133.811 88.7561 133.811 90.6036V99.291H140.101V87.852C140.101 86.6334 140.022 84.55 138.45 83.0169C136.995 81.6018 134.873 81.4052 133.575 81.4052C132.396 81.4052 131.177 81.5625 129.92 82.27C129.133 82.7025 128.229 83.4493 127.522 84.7072C127.089 83.8424 126.382 82.8597 125.084 82.1914C124.141 81.6804 122.962 81.4052 121.704 81.4052C119.974 81.4052 117.93 82.0342 116.436 83.8424V81.7197H110.147V99.291ZM161.723 90.9967C161.723 89.0313 161.408 85.9651 158.932 83.6066C156.848 81.6411 154.215 81.2087 152.17 81.2087C148.711 81.2087 146.431 82.3487 144.977 83.7638C143.444 85.2576 142.343 87.6161 142.343 90.5643C142.343 93.9056 143.798 96.0676 144.938 97.2076C147.1 99.3696 149.891 99.8807 152.21 99.8807C156.023 99.8807 158.067 98.7014 159.364 97.4435C160.661 96.1856 161.212 94.8097 161.487 93.827H155.472C155.197 94.3773 154.765 94.7704 154.372 95.0063C153.586 95.4387 152.485 95.478 152.328 95.478C150.913 95.478 150.126 95.0063 149.733 94.6132C148.986 93.8663 148.633 92.6084 148.633 91.665H161.723V90.9967ZM148.829 88.0485C148.947 87.2623 149.34 86.6334 149.773 86.1617C150.441 85.4934 151.266 85.2183 152.328 85.2183C152.957 85.2183 154.097 85.3362 154.922 86.1617C155.394 86.6334 155.787 87.3803 155.944 88.0485H148.829Z" fill="white"/>
<path fill-rule="evenodd" clip-rule="evenodd" d="M82.1901 0.399414L50.708 31.8815L82.1901 63.3636L113.672 31.8815L82.1901 0.399414ZM82.1901 45.6658L95.9744 31.8815H68.4058L82.1901 45.6658Z" fill="url(#paint0_linear_563_3004)"/>
<defs>
<linearGradient id="paint0_linear_563_3004" x1="82.1901" y1="63.3636" x2="82.1901" y2="-26.4008" gradientUnits="userSpaceOnUse">
<stop offset="0.182577" stop-color="#1FA5FF"/>
<stop offset="0.572711" stop-color="#0068AE"/>
<stop offset="1" stop-color="#002944"/>
</linearGradient>
</defs>
</svg>
