<svg width="129" height="17" viewBox="0 0 129 17" fill="none" xmlns="http://www.w3.org/2000/svg">
<path d="M90.0442 16.646H119.996C121.083 16.646 122.16 16.4318 123.165 16.0156C124.17 15.5994 125.083 14.9893 125.852 14.2202C126.621 13.4511 127.231 12.5381 127.647 11.5332C128.064 10.5284 128.278 9.45139 128.278 8.36374C128.28 7.27492 128.067 6.19641 127.651 5.18993C127.236 4.18345 126.626 3.26875 125.857 2.49818C125.088 1.72761 124.174 1.11628 123.168 0.699178C122.162 0.282074 121.084 0.0673812 119.996 0.0673828L90.0442 0.0673828C88.9554 0.0673812 87.8773 0.282074 86.8715 0.699178C85.8657 1.11628 84.9521 1.72761 84.1828 2.49818C83.4135 3.26875 82.8037 4.18345 82.3884 5.18993C81.973 6.19641 81.7601 7.27492 81.7619 8.36374C81.7619 10.5603 82.6345 12.667 84.1878 14.2202C85.741 15.7734 87.8476 16.646 90.0442 16.646ZM4.8542 16.6695H8.51022V3.31093H13.2443V0.0673828H0.120117V3.30156H4.8542V16.6695ZM18.0253 16.6695H21.6813V3.93433H21.7282L25.9232 16.6601H28.7355L33.0712 3.93433H33.1181V16.6601H36.7741V0.0673828H31.2666L27.4231 10.8948H27.3762L23.5562 0.0673828H18.0253V16.6695ZM41.9019 0.123629H47.3859C48.6627 0.125592 49.9345 0.28299 51.1732 0.59235C52.3013 0.859966 53.3643 1.35084 54.2996 2.03601C55.2042 2.71616 55.9323 3.60345 56.4229 4.62335C56.9775 5.83506 57.2453 7.15829 57.2057 8.4903C57.231 9.71742 56.9711 10.9337 56.4463 12.0432C55.9577 13.0416 55.257 13.9214 54.3933 14.6212C53.5092 15.33 52.4995 15.8659 51.4169 16.2008C50.2727 16.5641 49.0786 16.746 47.8781 16.7398H41.9019V0.123629ZM45.5579 13.3416H47.4328C48.2214 13.3469 49.0079 13.2604 49.7764 13.0838C50.4622 12.9446 51.1107 12.6618 51.6794 12.2541C52.2222 11.8434 52.654 11.3037 52.9356 10.6839C53.2647 9.93423 53.4247 9.12129 53.4043 8.30281C53.4182 7.56943 53.2576 6.84325 52.9356 6.18419C52.6433 5.60014 52.2217 5.09039 51.7029 4.69366C51.1637 4.29321 50.555 3.99604 49.9077 3.81715C49.1937 3.61751 48.4554 3.51812 47.714 3.52186H45.5579V13.3416ZM62.5022 0.123629H68.6893C69.4154 0.123983 70.1406 0.175672 70.8595 0.278307C71.5414 0.366643 72.2028 0.572824 72.8141 0.887645C73.3851 1.18394 73.8696 1.6232 74.2202 2.16257C74.6092 2.82074 74.7966 3.57852 74.7593 4.34212C74.7914 5.19242 74.5132 6.02539 73.9765 6.68572C73.4287 7.32016 72.7067 7.77978 71.9001 8.00752V8.03564C72.4191 8.10975 72.9226 8.26807 73.3906 8.50436C73.8228 8.7214 74.2119 9.01522 74.539 9.3715C74.8629 9.72827 75.113 10.1456 75.2748 10.5995C75.4494 11.0802 75.5367 11.5881 75.5326 12.0995C75.5607 12.8696 75.3654 13.6315 74.9702 14.2931C74.6025 14.869 74.1048 15.3506 73.5171 15.6992C72.8994 16.0701 72.2223 16.3317 71.5157 16.4726C70.787 16.6288 70.0439 16.7074 69.2986 16.707H62.5022V0.123629ZM66.1582 6.75603H68.8065C69.0873 6.75756 69.3673 6.7261 69.6408 6.66229C69.9023 6.6055 70.1516 6.50231 70.3767 6.35762C70.5964 6.21597 70.7782 6.02291 70.9064 5.79515C71.0437 5.53562 71.1115 5.24496 71.1032 4.95146C71.1183 4.65315 71.0467 4.35686 70.897 4.09838C70.7515 3.8769 70.5535 3.69492 70.3205 3.56873C70.0593 3.43759 69.7794 3.34748 69.4908 3.30156C69.2051 3.2463 68.9147 3.21805 68.6237 3.21719H66.1395L66.1582 6.75603ZM66.1582 13.6228H69.4393C69.7278 13.6236 70.0155 13.5921 70.297 13.529C70.5769 13.4718 70.8428 13.3603 71.0798 13.2009C71.3163 13.0449 71.5136 12.8364 71.6563 12.5916C71.8103 12.3122 71.8864 11.9965 71.8766 11.6776C71.8891 11.3412 71.7866 11.0105 71.586 10.7402C71.3892 10.4969 71.1346 10.3067 70.8454 10.1871C70.5451 10.0619 70.2301 9.97533 69.908 9.92927C69.5897 9.88407 69.2686 9.86058 68.9471 9.85896H66.1817L66.1582 13.6228Z" fill="url(#paint0_linear_563_4076)"/>
<defs>
<linearGradient id="paint0_linear_563_4076" x1="0.120117" y1="8.39187" x2="128.278" y2="8.39187" gradientUnits="userSpaceOnUse">
<stop stop-color="#90CEA1"/>
<stop offset="0.56" stop-color="#3CBEC9"/>
<stop offset="1" stop-color="#00B3E5"/>
</linearGradient>
</defs>
</svg>
