<svg width="15" height="11" viewBox="0 0 15 11" fill="none" xmlns="http://www.w3.org/2000/svg">
<path d="M7.38363 0.685547C4.05029 0.685547 1.20363 2.75888 0.050293 5.68555C1.20363 8.61221 4.05029 10.6855 7.38363 10.6855C10.717 10.6855 13.5636 8.61221 14.717 5.68555C13.5636 2.75888 10.717 0.685547 7.38363 0.685547ZM7.38363 9.01888C5.54363 9.01888 4.05029 7.52555 4.05029 5.68555C4.05029 3.84555 5.54363 2.35221 7.38363 2.35221C9.22363 2.35221 10.717 3.84555 10.717 5.68555C10.717 7.52555 9.22363 9.01888 7.38363 9.01888ZM7.38363 3.68555C6.27696 3.68555 5.38363 4.57888 5.38363 5.68555C5.38363 6.79221 6.27696 7.68555 7.38363 7.68555C8.49029 7.68555 9.38363 6.79221 9.38363 5.68555C9.38363 4.57888 8.49029 3.68555 7.38363 3.68555Z" fill="white"/>
</svg>
